<?xml version="1.0" encoding="UTF-8"?>
<svg width="375px" height="114px" viewBox="0 0 375 114" version="1.1" xmlns="http://www.w3.org/2000/svg"
     xmlns:xlink="http://www.w3.org/1999/xlink">
    <title>蓝色背景</title>
    <defs>
        <linearGradient x1="7.78105773%" y1="45.5419665%" x2="88.5600076%" y2="51.628797%" id="linearGradient-1">
            <stop stop-color="#7CA7FF" offset="0%"></stop>
            <stop stop-color="#5580D8" offset="100%"></stop>
        </linearGradient>
        <polygon id="path-2" points="9.99200722e-13 120 375 120 375 0 -3.32416386e-13 0"></polygon>
    </defs>
    <g id="ui备份" stroke="none" stroke-width="1" fill="none" fill-rule="evenodd">
        <g id="01基础信息" transform="translate(0.000000, -64.000000)">
            <g id="蓝色背景" transform="translate(0.000000, 64.000000)">
                <mask id="mask-3" fill="white">
                    <use xlink:href="#path-2"></use>
                </mask>
                <use id="蒙版" fill="url(#linearGradient-1)" xlink:href="#path-2"></use>
                <g id="企业" mask="url(#mask-3)" fill-rule="nonzero">
                    <g transform="translate(330.168831, 33.000000)">
                        <rect id="矩形" fill="#000000" opacity="0" x="0" y="0" width="97" height="97"></rect>
                        <path d="M51.1818689,35.5792969 L51.1818689,75.1276367 L44.5131189,75.1276367 L44.5131189,14.5973633 C44.5131189,13.5932617 43.5658533,12.8638672 42.5996423,13.1196289 L4.95530641,22.8954102 C4.28274782,23.065918 3.80911501,23.6816406 3.80911501,24.3731445 L3.80911501,80.2712891 C3.80911501,81.1143555 4.49114626,81.7963867 5.33421266,81.7963867 L69.1325525,81.7963867 C69.9756189,81.7963867 70.6576502,81.1143555 70.6576502,80.2712891 L70.6576502,39.0841797 C70.6576502,38.3642578 70.1555994,37.7390625 69.4451502,37.5875 L53.0290369,34.0826172 C52.0817713,33.8836914 51.1818689,34.6036133 51.1818689,35.5792969 Z M36.5939783,57.5748047 C36.5939783,58.4083984 35.9214197,59.080957 35.0878259,59.080957 L14.9868494,59.080957 C14.1532556,59.080957 13.480697,58.4083984 13.480697,57.5748047 L13.480697,53.9183594 C13.480697,53.0847656 14.1532556,52.412207 14.9868494,52.412207 L35.0878259,52.412207 C35.9214197,52.412207 36.5939783,53.0847656 36.5939783,53.9183594 L36.5939783,57.5748047 L36.5939783,57.5748047 Z M36.5939783,39.0936523 C36.5939783,39.9272461 35.9214197,40.5998047 35.0878259,40.5998047 L14.9868494,40.5998047 C14.1532556,40.5998047 13.480697,39.9272461 13.480697,39.0936523 L13.480697,35.437207 C13.480697,34.6036133 14.1532556,33.9310547 14.9868494,33.9310547 L35.0878259,33.9310547 C35.9214197,33.9310547 36.5939783,34.6036133 36.5939783,35.437207 L36.5939783,39.0936523 L36.5939783,39.0936523 Z" id="形状" fill="#FFFFFF" opacity="0.0600353423"></path>
                    </g>
                </g>
                <g id="企业信息" mask="url(#mask-3)" fill-rule="nonzero">
                    <g transform="translate(276.000000, 50.636364)">
                        <rect id="矩形" fill="#000000" opacity="0" x="8.81818182" y="0" width="64.2467532" height="64.2467532"></rect>
                        <path d="M34.3909091,53.6649351 L39.6818182,53.6649351 L39.6818182,33.824026 C39.6818182,33.0935039 40.2740234,32.5012987 41.0045455,32.5012987 L46.2954545,32.5012987 C47.0259766,32.5012987 47.6181818,33.0935039 47.6181818,33.824026 L47.6181818,53.6649351 L52.9090909,53.6649351 L52.9090909,64.2467532 L0,64.2467532 L0,53.6649351 L5.29090909,53.6649351 L5.29090909,13.9831169 C5.29090909,12.5220727 6.47531943,11.3376623 7.93636364,11.3376623 L31.7454545,11.3376623 C32.4470727,11.3376623 33.1199544,11.6163791 33.6160734,12.112498 C34.1121924,12.608617 34.3909091,13.2814987 34.3909091,13.9831169 L34.3909091,53.6649351 L34.3909091,53.6649351 Z M10.5818182,21.9194805 L10.5818182,48.374026 L18.5181818,48.374026 L18.5181818,21.9194805 L10.5818182,21.9194805 Z M23.8090909,32.5012987 L23.8090909,48.374026 L29.1,48.374026 L29.1,32.5012987 L23.8090909,32.5012987 Z" id="形状" fill="#FFFFFF" opacity="0.0600353423"></path>
                    </g>
                </g>
                <path d="M-25.2808056,27.5464809 C70.4360059,30.3293341 146.187922,41.557513 201.974943,61.2310175 C285.655474,90.7412742 373.04044,64.0994745 398.011568,44.1636324 C414.658986,30.873071 408.901234,3.15539994 380.73831,-38.9893808 C117.796491,-43.3013141 -18.5680533,-40.6777837 -28.3553221,-31.1187896 C-38.1425909,-21.5597955 -37.117752,-2.00470538 -25.2808056,27.5464809 Z" id="Path-6" fill-opacity="0.0619055707" fill="#FFFFFF" mask="url(#mask-3)" transform="translate(186.144276, 16.685343) scale(-1, 1) translate(-186.144276, -16.685343) "></path>
            </g>
        </g>
    </g>
</svg>
